<svg xmlns="http://www.w3.org/2000/svg" version="1.1" xmlns:xlink="http://www.w3.org/1999/xlink" xmlns:svgjs="http://svgjs.dev/svgjs" viewBox="0 0 2400 800"><defs><linearGradient x1="50%" y1="0%" x2="50%" y2="100%" id="sssurf-grad"><stop stop-color="hsla(212, 98%, 56%, 1.00)" stop-opacity="1" offset="0%"></stop><stop stop-color="hsla(212, 98%, 56%, 1.00)" stop-opacity="1" offset="100%"></stop></linearGradient></defs><g fill="url(#sssurf-grad)" transform="matrix(1,0,0,1,0,-378.1688232421875)"><path d="M 0 300.3376608806478 Q 450 502.8304819835461 600 315.3374223875964 Q 1050 478.76532697508037 1200 342.55409638801416 Q 1650 547.7955388350297 1800 315.3363576868528 Q 2250 561.0332423445961 2400 304.399983873972 L 2400 800 L 0 800 L 0 312.5199034907636 Z" transform="matrix(1,0,0,1,0,107)" opacity="0.05"></path><path d="M 0 300.3376608806478 Q 450 502.8304819835461 600 315.3374223875964 Q 1050 478.76532697508037 1200 342.55409638801416 Q 1650 547.7955388350297 1800 315.3363576868528 Q 2250 561.0332423445961 2400 304.399983873972 L 2400 800 L 0 800 L 0 312.5199034907636 Z" transform="matrix(1,0,0,1,0,214)" opacity="0.21"></path><path d="M 0 300.3376608806478 Q 450 502.8304819835461 600 315.3374223875964 Q 1050 478.76532697508037 1200 342.55409638801416 Q 1650 547.7955388350297 1800 315.3363576868528 Q 2250 561.0332423445961 2400 304.399983873972 L 2400 800 L 0 800 L 0 312.5199034907636 Z" transform="matrix(1,0,0,1,0,321)" opacity="0.37"></path><path d="M 0 300.3376608806478 Q 450 502.8304819835461 600 315.3374223875964 Q 1050 478.76532697508037 1200 342.55409638801416 Q 1650 547.7955388350297 1800 315.3363576868528 Q 2250 561.0332423445961 2400 304.399983873972 L 2400 800 L 0 800 L 0 312.5199034907636 Z" transform="matrix(1,0,0,1,0,428)" opacity="0.53"></path><path d="M 0 300.3376608806478 Q 450 502.8304819835461 600 315.3374223875964 Q 1050 478.76532697508037 1200 342.55409638801416 Q 1650 547.7955388350297 1800 315.3363576868528 Q 2250 561.0332423445961 2400 304.399983873972 L 2400 800 L 0 800 L 0 312.5199034907636 Z" transform="matrix(1,0,0,1,0,535)" opacity="0.68"></path><path d="M 0 300.3376608806478 Q 450 502.8304819835461 600 315.3374223875964 Q 1050 478.76532697508037 1200 342.55409638801416 Q 1650 547.7955388350297 1800 315.3363576868528 Q 2250 561.0332423445961 2400 304.399983873972 L 2400 800 L 0 800 L 0 312.5199034907636 Z" transform="matrix(1,0,0,1,0,642)" opacity="0.84"></path><path d="M 0 300.3376608806478 Q 450 502.8304819835461 600 315.3374223875964 Q 1050 478.76532697508037 1200 342.55409638801416 Q 1650 547.7955388350297 1800 315.3363576868528 Q 2250 561.0332423445961 2400 304.399983873972 L 2400 800 L 0 800 L 0 312.5199034907636 Z" transform="matrix(1,0,0,1,0,749)" opacity="1.00"></path></g></svg>